<?xml version="1.0" standalone="no"?><!DOCTYPE svg PUBLIC "-//W3C//DTD SVG 1.1//EN" "http://www.w3.org/Graphics/SVG/1.1/DTD/svg11.dtd"><svg t="1626496458776" class="icon" viewBox="0 0 1573 1024" version="1.1" xmlns="http://www.w3.org/2000/svg" p-id="6044" width="196.625" height="128" xmlns:xlink="http://www.w3.org/1999/xlink"><defs><style type="text/css"></style></defs><path d="M167.337 695.184h20.854c5.62 0.1 10.115 4.633 10.115 10.19 0 5.62-4.433 10.19-10.115 10.19h-20.854v20.58a10.265 10.265 0 0 1-10.328 9.99 10.24 10.24 0 0 1-7.268-2.872 9.965 9.965 0 0 1-3.047-7.118V715.55H125.84a10.252 10.252 0 0 1-10.116-10.19c0-5.62 4.434-10.19 10.116-10.19h20.854v-20.58a10.265 10.265 0 0 1 10.315-9.99c5.707 0 10.328 4.396 10.328 9.99v20.593z m1362.669-81.52v-20.58a9.965 9.965 0 0 0-3.047-7.119 10.24 10.24 0 0 0-7.28-2.872 10.265 10.265 0 0 0-10.315 9.99v20.58h-20.855a10.228 10.228 0 0 0-7.218 2.997 9.953 9.953 0 0 0-2.897 7.193c0 5.457 4.533 10.19 10.115 10.19h20.855v20.58c0 5.607 4.62 9.99 10.314 9.99 5.62 0 10.215-4.445 10.328-9.99v-20.58h20.854c5.682 0 10.116-4.57 10.116-10.19a10.252 10.252 0 0 0-10.116-10.19h-20.854zM779.963 949.91h-519.78c-5.47 0-10.714-2.136-14.585-5.957a20.168 20.168 0 0 1-5.994-14.423c0-11.24 9.353-20.368 20.58-20.368h93.633a80.172 80.172 0 0 1-10.99-40.66V277.317c0.013-21.63 8.742-42.359 24.24-57.632a83.081 83.081 0 0 1 58.442-23.789h61.853v-20.48c0-21.616 8.729-42.346 24.226-57.619a83.081 83.081 0 0 1 58.443-23.789h495.341a83.044 83.044 0 0 1 58.443 23.777 80.884 80.884 0 0 1 24.226 57.631v591.185c0 14.823-3.996 28.697-10.989 40.66h114.201a20.48 20.48 0 0 1 20.667 20.38c0 11.24-9.178 20.38-20.642 20.38H1003.52v20.48c0 14.811-3.996 28.698-11.002 40.661h11.064c11.364 0 20.58 9.041 20.58 20.368 0 11.251-9.353 20.38-20.58 20.38H894.964a40.248 40.248 0 0 1-6.344 49.626 41.46 41.46 0 0 1-29.197 11.976 41.46 41.46 0 0 1-29.184-11.976l-50.276-49.626z m75.477-40.748h65.66a40.898 40.898 0 0 0 41.123-40.86V276.355a39.711 39.711 0 0 0-39.836-39.711H423.96a39.774 39.774 0 0 0-39.849 39.711v591.947c0 22.553 18.582 40.86 41.11 40.86H738.63l-10.615-10.49a40.323 40.323 0 0 1-10.74-39.399l-19.48-19.256c-60.729 44.607-146.045 35.428-195.61-21.054a141.35 141.35 0 0 1 6.844-194.086c53.573-53.073 139.614-56.195 196.995-7.143 57.369 49.04 66.535 133.545 20.967 193.461l19.506 19.257a41.522 41.522 0 0 1 39.911 10.577l69.02 68.133z m148.08-101.9h62.127c22.728-0.113 41.085-18.32 41.11-40.76V175.515c0-22.578-18.42-40.76-41.11-40.76H569.73c-22.715 0.125-41.072 18.332-41.085 40.76v20.38H920.85a83.044 83.044 0 0 1 58.443 23.777 80.884 80.884 0 0 1 24.226 57.644v529.945zM275.73 58.343h30.758c8.68 0 15.697 6.78 15.697 15.285 0 8.43-7.018 15.285-15.697 15.285h-30.757v30.346a15.435 15.435 0 0 1-15.485 15.484 15.685 15.685 0 0 1-10.99-4.57 15.285 15.285 0 0 1-4.495-10.914V88.913h-30.757a15.66 15.66 0 0 1-11.077-4.433 15.248 15.248 0 0 1-4.62-10.864c0-8.43 7.017-15.273 15.697-15.273h30.757v-30.37a15.485 15.485 0 0 1 30.97 0v30.37zM33.13 929.53c0-11.24 9.366-20.368 20.593-20.368h124.003c11.352 0 20.58 9.041 20.58 20.368 0 11.251-9.353 20.38-20.58 20.38H53.723c-5.47 0-10.727-2.136-14.586-5.957a20.168 20.168 0 0 1-5.994-14.423z m651.114-131.722a101.014 101.014 0 0 0 26.724-98.441c-9.553-35.166-37.376-62.626-73.004-72.055a104.173 104.173 0 0 0-99.74 26.375 100.976 100.976 0 0 0 0 144.109c40.336 39.811 105.697 39.811 146.02 0zM466.707 318.164c0-11.239 9.24-20.355 20.63-20.367h227.128c11.401 0 20.655 9.116 20.655 20.367 0 11.264-9.241 20.38-20.655 20.38H487.362a20.73 20.73 0 0 1-14.611-5.944 20.18 20.18 0 0 1-6.044-14.436z m0 101.9c0-11.238 9.19-20.38 20.505-20.38h330.64c11.313 0 20.492 9.054 20.492 20.38 0 11.24-9.179 20.38-20.493 20.38h-330.64a20.599 20.599 0 0 1-14.535-5.993 20.118 20.118 0 0 1-5.97-14.386z m0 101.901c0-11.251 9.216-20.38 20.605-20.38H631.92c11.377 0 20.605 9.041 20.605 20.368 0 11.251-9.203 20.38-20.605 20.38H487.312c-5.47 0.012-10.727-2.123-14.599-5.957a20.168 20.168 0 0 1-5.994-14.423zM74.427 399.672a62.09 62.09 0 0 1-53.635-30.57 60.441 60.441 0 0 1 0-61.128 62.09 62.09 0 0 1 53.635-30.57c34.217 0 61.94 27.373 61.94 61.128 0 33.767-27.723 61.14-61.94 61.14z m0-30.57c11.065 0 21.292-5.82 26.824-15.285a30.22 30.22 0 0 0 0-30.57 31.045 31.045 0 0 0-26.824-15.273c-17.108 0-30.97 13.687-30.97 30.558 0 16.883 13.862 30.57 30.97 30.57z m1280.088-91.698c-34.217 0-61.94-27.373-61.94-61.14 0-33.767 27.723-61.14 61.94-61.14 34.204 0 61.94 27.373 61.94 61.14 0 33.767-27.736 61.14-61.94 61.14z m0-30.57c11.064 0 21.291-5.832 26.824-15.285a30.22 30.22 0 0 0 0-30.57 31.045 31.045 0 0 0-26.824-15.285c-17.109 0-30.97 13.686-30.97 30.57 0 16.883 13.861 30.57 30.97 30.57z" p-id="6045"></path></svg>