<?xml version="1.0" standalone="no"?><!DOCTYPE svg PUBLIC "-//W3C//DTD SVG 1.1//EN" "http://www.w3.org/Graphics/SVG/1.1/DTD/svg11.dtd"><svg t="1625375867529" class="icon" viewBox="0 0 1024 1024" version="1.1" xmlns="http://www.w3.org/2000/svg" p-id="8337" xmlns:xlink="http://www.w3.org/1999/xlink" width="64" height="64"><defs><style type="text/css"></style></defs><path d="M312.17664 393.09312a20.48 20.48 0 1 0 0-40.96h-77.2096a20.48 20.48 0 0 0-20.48 20.48v449.55648a20.48 20.48 0 0 0 20.48 20.48h449.55648a20.48 20.48 0 0 0 20.48-20.48V745.0624a20.48 20.48 0 1 0-40.96 0v56.6272h-408.576V393.09312h56.70912z" fill="" p-id="8338"></path><path d="M849.38752 187.31008H399.81056a20.48 20.48 0 0 0-20.48 20.48v449.55648a20.48 20.48 0 0 0 20.48 20.48h449.55648a20.48 20.48 0 0 0 20.48-20.48V207.79008a20.43904 20.43904 0 0 0-20.45952-20.48z m-20.48 449.55648H420.29056V228.27008h408.59648v408.59648z" fill="" p-id="8339"></path></svg>